<svg xmlns="http://www.w3.org/2000/svg" viewBox="0 0 900 600">
  <rect width="900" height="600" fill="#EE1C25"/>
  <g fill="#FFFF00">
    <polygon points="250,100 270,160 335,160 282,197 302,257 250,220 198,257 218,197 165,160 230,160"/>
    <polygon points="350,125 358,142 376,142 361,153 369,170 350,159 331,170 339,153 324,142 342,142"/>
    <polygon points="400,175 408,192 426,192 411,203 419,220 400,209 381,220 389,203 374,192 392,192"/>
    <polygon points="400,275 408,292 426,292 411,303 419,320 400,309 381,320 389,303 374,292 392,292"/>
    <polygon points="350,325 358,342 376,342 361,353 369,370 350,359 331,370 339,353 324,342 342,342"/>
  </g>
</svg> 